<?xml version="1.0" standalone="no"?>
<!DOCTYPE svg PUBLIC "-//W3C//DTD SVG 20010904//EN"
 "http://www.w3.org/TR/2001/REC-SVG-20010904/DTD/svg10.dtd">
<svg version="1.0" xmlns="http://www.w3.org/2000/svg"
 width="1000.000000pt" height="1000.000000pt" viewBox="0 0 1000.000000 1000.000000"
 preserveAspectRatio="xMidYMid meet">

<g transform="translate(0.000000,1000.000000) scale(0.100000,-0.100000)"
fill="#000000" stroke="none">
<path d="M0 5000 l0 -5000 5000 0 5000 0 0 5000 0 5000 -5000 0 -5000 0 0
-5000z m3251 1660 c18 -10 19 -28 19 -625 l0 -615 415 0 415 0 0 603 c0 529 2
605 16 625 l15 22 386 0 c346 0 388 -2 405 -17 17 -15 18 -80 18 -1651 0
-1508 -1 -1637 -17 -1654 -15 -17 -41 -18 -404 -18 l-388 0 -15 22 c-14 20
-16 96 -16 625 l0 603 -415 0 -415 0 0 -615 c0 -597 -1 -615 -19 -625 -13 -6
-156 -10 -396 -10 -240 0 -383 4 -396 10 -19 11 -19 40 -19 1660 0 1560 1
1650 18 1659 24 14 766 15 793 1z m4594 -1660 l0 -1655 -1240 0 -1240 0 -3
1645 c-1 905 0 1651 3 1658 3 10 257 12 1242 10 l1238 -3 0 -1655z"/>
</g>
</svg>
