<?xml version="1.0" standalone="no"?>
<!DOCTYPE svg PUBLIC "-//W3C//DTD SVG 20010904//EN"
 "http://www.w3.org/TR/2001/REC-SVG-20010904/DTD/svg10.dtd">
<svg version="1.0" xmlns="http://www.w3.org/2000/svg"
 width="487.000000pt" height="388.000000pt" viewBox="0 0 487.000000 388.000000"
 preserveAspectRatio="xMidYMid meet">

<g transform="translate(0.000000,388.000000) scale(0.100000,-0.100000)"
fill="#000000" stroke="none">
<path d="M1702 2835 c-59 -18 -106 -57 -139 -113 l-28 -47 -3 -710 c-2 -525 0
-721 9 -753 17 -63 58 -113 120 -147 l54 -30 699 -3 c777 -3 765 -4 843 63 23
19 51 54 62 78 21 43 21 54 21 765 0 591 -3 729 -14 756 -19 46 -72 104 -120
129 -41 22 -41 22 -751 24 -573 2 -718 -1 -753 -12z m384 -406 l91 -140 92
140 93 141 74 0 c58 0 73 -3 68 -12 -4 -7 -65 -95 -136 -194 l-128 -182 0
-146 0 -146 -65 0 -65 0 0 149 0 148 -78 109 c-43 60 -104 146 -135 192 l-58
82 78 0 78 0 91 -141z m324 -364 l0 -124 -30 -16 c-16 -8 -41 -27 -55 -42
l-25 -28 0 168 0 167 55 0 55 0 0 -125z m540 -151 c19 -11 45 -35 57 -54 22
-31 23 -42 23 -229 0 -192 -1 -197 -24 -232 -45 -65 -63 -69 -343 -69 -277 0
-295 4 -340 70 -22 31 -23 42 -23 227 0 204 4 226 48 266 46 42 85 47 332 44
217 -2 238 -4 270 -23z m-165 -644 l0 -25 -118 -3 c-98 -2 -118 0 -123 13 -3
8 -3 22 0 30 5 13 25 15 123 13 l118 -3 0 -25z"/>
<path d="M2420 1801 c-13 -25 -13 -321 0 -341 7 -11 10 -2 10 33 0 43 2 47 25
47 23 0 25 -3 25 -50 0 -27 5 -50 10 -50 6 0 10 27 10 60 0 57 1 60 25 60 24
0 25 -3 25 -60 0 -33 4 -60 10 -60 6 0 10 28 10 65 0 63 1 65 25 65 24 0 25
-2 25 -65 0 -37 4 -65 10 -65 6 0 10 33 10 80 0 79 0 80 25 80 25 0 25 -1 25
-80 0 -47 4 -80 10 -80 6 0 10 28 10 65 0 63 1 65 25 65 24 0 25 -2 25 -65 0
-37 4 -65 10 -65 6 0 10 38 10 95 0 95 0 95 25 95 25 0 25 0 25 -95 0 -57 4
-95 10 -95 6 0 10 32 10 75 0 73 1 75 25 75 24 0 25 -2 25 -66 0 -41 4 -63 10
-59 13 8 13 310 0 336 -10 18 -24 19 -245 19 -221 0 -235 -1 -245 -19z"/>
</g>
</svg>
